<svg xmlns="http://www.w3.org/2000/svg" xmlns:xlink="http://www.w3.org/1999/xlink" width="96" height="96" viewBox="0 0 96 96"><defs><clipPath id="a"><rect width="96" height="96" transform="translate(112 2195)" fill="#fff"/></clipPath><clipPath id="b"><rect width="73.69" height="96" fill="none"/></clipPath></defs><g transform="translate(-112 -2195)" clip-path="url(#a)"><g transform="translate(107.6 2195)"><g transform="translate(15.4)" clip-path="url(#b)"><g clip-path="url(#b)"><path d="M31.133,8A30.72,30.72,0,1,0,64.311,8l-3.648,5.53a23.962,23.962,0,0,1,3.11,37.824V38.682c-1.421,2.266-3.84,6.413-6.8,6.989V55.693a23.04,23.04,0,0,1-5.914,1.613V42.176a11.52,11.52,0,0,1-6.8,5.338v9.6A24.922,24.922,0,0,1,38.7,55.578v-8.41a10.176,10.176,0,0,1-6.336-7.258h-.23V51.43a23.923,23.923,0,0,1,2.842-38.054Z" transform="translate(-10.858 22.72)" fill="#0d0ce3"/><path d="M32.144,6.54A36.826,36.826,0,0,0,28.3,65.407l1.958-3.379a33.024,33.024,0,0,1,3.84-52.3Zm40.243,0L70.275,9.727A32.986,32.986,0,0,1,73.77,62.45l1.92,3.379a36.787,36.787,0,0,0-3.3-59.29" transform="translate(-15.402 18.574)" fill="#1a1a1a"/><path d="M27.664,39.58a19.508,19.508,0,0,0-1.19-4.762,55.757,55.757,0,0,1-3.264-8.832,15.129,15.129,0,0,1-.5-3.84c0-2.381,0-2.5.768-1.728s1.651.576,1.843.269a12.441,12.441,0,0,0,0-1.843,28.57,28.57,0,0,1,.307-6.912c0-.192.307,0,.806.768s1.651,1.8,2.035,1.651.23-.538.269-1.5a11.52,11.52,0,0,1,.614-2.842,15.015,15.015,0,0,0,1.421-5.76,10.291,10.291,0,0,0-.192-3.034,3.719,3.719,0,0,0-.23-1.229A10.306,10.306,0,0,1,32.5,2.064a13.747,13.747,0,0,1,1.882,7.987v2.342a5.184,5.184,0,0,0,1.92-1.306,3.187,3.187,0,0,0,.5-1.344,1.1,1.1,0,0,1,.346-.883,2.189,2.189,0,0,1,.422.96,19.622,19.622,0,0,1,0,6.72c-.346,2.15-.346,2.15,0,2.227s1.536-1.075,1.92-2.074a2.381,2.381,0,0,1,.5-.922c.23,0,.346,1.229.23,2.918a21.351,21.351,0,0,1-1.613,6.874c-.384,1.075-.96,2.88-1.229,3.84-.422,1.843-1.843,9.792-1.843,9.792Z" transform="translate(5.36 -0.028)" fill="#f60400"/><path d="M25.812,25.344a2.918,2.918,0,0,1-3,2.918,2.957,2.957,0,0,1-2.957-3,3,3,0,0,1,3.034-2.957,2.957,2.957,0,0,1,2.918,3.034" transform="translate(-2.734 63.36)" fill="#0d0ce3"/><path d="M27.43,26.105a3,3,0,1,1-3-3,3,3,0,0,1,3,3" transform="translate(1.754 65.632)" fill="#0d0ce3"/><path d="M30.21,26.435a3,3,0,1,1-3-3,3,3,0,0,1,3,3" transform="translate(9.649 66.57)" fill="#0d0ce3"/><path d="M33.168,26.155a2.957,2.957,0,0,1-3.149,2.765,3,3,0,1,1,.384-5.952,2.957,2.957,0,0,1,2.765,3.187" transform="translate(17.367 65.122)" fill="#0d0ce3"/><path d="M34.6,25.435a3,3,0,1,1-2.765-3.149A2.957,2.957,0,0,1,34.6,25.435" transform="translate(22.12 63.269)" fill="#0d0ce3"/><path d="M27.058,18.442c-.269,0-.422,0-.5.192a.691.691,0,0,0,0,.346.5.5,0,0,0,0,.384.846.846,0,0,1,.5.23h0a8.255,8.255,0,0,0,1.574,0,1.613,1.613,0,0,0,.806-.422A3.149,3.149,0,0,0,29.9,18.4a2.151,2.151,0,0,0,0-.883A3.84,3.84,0,0,0,29.63,16.1a9.718,9.718,0,0,0-.614-1.267h0a4.992,4.992,0,0,0-.653,1l.614,1.267a2.88,2.88,0,0,1,.269.922.192.192,0,0,1,0,.192L28.9,18.4a2.073,2.073,0,0,1-.73,0H27.019Zm.653-5.76.538.422.5.461a3.84,3.84,0,0,0,.73-.845,6.221,6.221,0,0,0-1.075-.96,9.6,9.6,0,0,0-.691.922" transform="translate(16.181 33.398)"/><path d="M25.54,19.095c-.23,0-.422,0-.5.192s0,.23,0,.346a.461.461,0,0,0,0,.384.846.846,0,0,1,.5.23h0a3.84,3.84,0,0,0,1.075,0l1.459-.422a8.409,8.409,0,0,0,1.536.422,5.568,5.568,0,0,0,1.344,0h.269V19.095h-.307a4.57,4.57,0,0,1-1.382,0,3.072,3.072,0,0,0,.422-.96,3.149,3.149,0,0,0,.192-1.075,2.419,2.419,0,0,0-.346-1.267,2.266,2.266,0,0,0-.538-.73.806.806,0,0,0-.5-.269,1.229,1.229,0,0,0-.614.23,3.456,3.456,0,0,0-.73.614,3.072,3.072,0,0,0-.614,1,3.84,3.84,0,0,0,0,1.075,1.92,1.92,0,0,0,0,.653,1.728,1.728,0,0,0,.269.691h-.691a2.381,2.381,0,0,1-.73,0Zm2.88-.5a1.958,1.958,0,0,1-.845-.461,1.536,1.536,0,0,1-.384-.691,2.419,2.419,0,0,1,.576-1,1.459,1.459,0,0,1,.96-.5.614.614,0,0,1,.461.23,3.841,3.841,0,0,1,.422.576,1.767,1.767,0,0,1,0,.346,1.921,1.921,0,0,1,0,.461c0,.192-.192.384-.461.614a2.458,2.458,0,0,1-.922.422m-.538-6.029.538.422.614.346a3.034,3.034,0,0,0,.73-.845,7.872,7.872,0,0,0-1.037-.96,8.562,8.562,0,0,0-.73.922" transform="translate(11.861 32.745)"/><path d="M24.969,20.06a10.445,10.445,0,0,1-2.419-.307h0a10.526,10.526,0,0,0,1.267,1.152h.653a4.65,4.65,0,0,0-.192.538,2.994,2.994,0,0,0,0,.538h0l.768-1.075h1a16.512,16.512,0,0,0,3.418-.307,14.092,14.092,0,0,0,2.88.307h.192V19.753H31.305a3.418,3.418,0,0,0,.307-.653,1.8,1.8,0,0,0,0-.653,2.189,2.189,0,0,0-.653-1.536,2.15,2.15,0,0,0-1.459-.653,3,3,0,0,0-.845,0,2.573,2.573,0,0,0-.806.346,7.219,7.219,0,0,0-.922.691l-.96.922h0a2.266,2.266,0,0,0,.23-.768,3.84,3.84,0,0,0,0-1V13.609l.576-.461a3.84,3.84,0,0,1-.73-1.958h0a1.958,1.958,0,0,0-.5.461,1.037,1.037,0,0,0-.192.538v.461a1.575,1.575,0,0,1,0,.422v5.8Zm.576,0a14.592,14.592,0,0,1,1.882-1.728,2.88,2.88,0,0,1,1.69-.576,1.843,1.843,0,0,1,1.267.461,1.382,1.382,0,0,1,.538,1.037,2.189,2.189,0,0,1-1.536.653,23.039,23.039,0,0,1-3.034,0Z" transform="translate(4.906 31.78)"/></g></g></g></g></svg>